HIERARCHY
ROOT Hips
{
  OFFSET -102.467 93.6631 130.069
  CHANNELS 6 Xposition Yposition Zposition Zrotation Xrotation Yrotation
  JOINT LeftUpLeg
  {
    OFFSET 8.64259 1.95398 -2.38835
    CHANNELS 3 Zrotation Xrotation Yrotation
    JOINT LeftLeg
    {
      OFFSET 43.7702 0 0
      CHANNELS 3 Zrotation Xrotation Yrotation
      JOINT LeftFoot
      {
        OFFSET 40.6238 0 0
        CHANNELS 3 Zrotation Xrotation Yrotation
        JOINT LeftToeBase
        {
          OFFSET 12.7242 0 0
          CHANNELS 3 Zrotation Xrotation Yrotation
          End Site
          {
            OFFSET 0 0 0
          }
        }
      }
    }
  }
  JOINT RightUpLeg
  {
    OFFSET -8.2249 1.95398 -2.59336
    CHANNELS 3 Zrotation Xrotation Yrotation
    JOINT RightLeg
    {
      OFFSET 43.5653 0 0
      CHANNELS 3 Zrotation Xrotation Yrotation
      JOINT RightFoot
      {
        OFFSET 40.6238 0 0
        CHANNELS 3 Zrotation Xrotation Yrotation
        JOINT RightToeBase
        {
          OFFSET 12.7242 0 0
          CHANNELS 3 Zrotation Xrotation Yrotation
          End Site
          {
            OFFSET 0 0 0
          }
        }
      }
    }
  }
  JOINT Spine
  {
    OFFSET 0.165834 0.87714 6.61349
    CHANNELS 3 Zrotation Xrotation Yrotation
    JOINT Spine1
    {
      OFFSET 7.38963 1.71661e-005 0
      CHANNELS 3 Zrotation Xrotation Yrotation
      JOINT Spine2
      {
        OFFSET 11.9445 1.14441e-005 0
        CHANNELS 3 Zrotation Xrotation Yrotation
        JOINT Spine3
        {
          OFFSET 14.7254 4.19617e-005 0
          CHANNELS 3 Zrotation Xrotation Yrotation
          JOINT Spine4
          {
            OFFSET 10.9679 0 0
            CHANNELS 3 Zrotation Xrotation Yrotation
            JOINT RightShoulder
            {
              OFFSET 2.46616 -1.6653 3.69651
              CHANNELS 3 Zrotation Xrotation Yrotation
              JOINT RightArm
              {
                OFFSET 13.0012 0 0
                CHANNELS 3 Zrotation Xrotation Yrotation
                JOINT RightForeArm
                {
                  OFFSET 28.7848 1.52588e-005 0
                  CHANNELS 3 Zrotation Xrotation Yrotation
                  JOINT RightHand
                  {
                    OFFSET 26.5688 1.52588e-005 0
                    CHANNELS 3 Zrotation Xrotation Yrotation
                    End Site
                    {
                      OFFSET 0 0 0
                    }
                  }
                }
              }
            }
            JOINT LeftShoulder
            {
              OFFSET 2.38034 -1.29275 -3.7523
              CHANNELS 3 Zrotation Xrotation Yrotation
              JOINT LeftArm
              {
                OFFSET 16.3182 6.10351e-005 0
                CHANNELS 3 Zrotation Xrotation Yrotation
                JOINT LeftForeArm
                {
                  OFFSET 27.0901 0 0
                  CHANNELS 3 Zrotation Xrotation Yrotation
                  JOINT LeftHand
                  {
                    OFFSET 24.5451 1.52588e-005 0
                    CHANNELS 3 Zrotation Xrotation Yrotation
                    End Site
                    {
                      OFFSET 0 0 0
                    }
                  }
                }
              }
            }
            JOINT Neck
            {
              OFFSET 5.0226 -0.0266342 0
              CHANNELS 3 Zrotation Xrotation Yrotation
              JOINT Head
              {
                OFFSET 6.69363 2.86102e-005 0
                CHANNELS 3 Zrotation Xrotation Yrotation
                End Site
                {
                  OFFSET 0 0 0
                }
              }
            }
          }
        }
      }
    }
  }
}
MOTION
Frames:	7
Frame Time:	0.0416667
257.531 72.8253 -252.482 4.18323 -81.0957 -6.93455 -170.971 48.6936 167.895 30.5518 58.134 -151.65 71.9429 -27.9904 49.7766 16.637 6.14842 -83.1185 173.767 74.1082 53.3728 -36.8484 -55.4362 11.0751 70.3258 0.817196 -14.7858 122.452 59.6522 67.1821 -5.84497 0.163103 -87.7381 27.0231 -9.7969 7.80538 15.3631 -9.44505 8.22888 -7.39435 -11.6838 4.48055 12.6183 -11.6838 4.48056 106.684 -33.18 -73.2845 79.9641 -24.6489 110.576 -45.7227 44.7423 -99.582 -4.72967 1.67316 -50.0317 -66.2483 -0.656206 136.49 58.4784 42.9278 -152.203 41.6547 -19.7838 -175.753 6.8555 16.6789 118.215 -93.819 -48.7271 17.0594 79.9318 -61.8859 -29.5894 
257.7 72.9786 -252.67 4.23514 -81.1302 -6.84185 -170.906 47.0057 166.845 30.6085 56.8966 -150.316 71.7312 -28.2426 48.71 17.6272 4.96862 -82.1824 172.368 73.8251 54.7695 -36.1176 -55.6302 10.8223 70.2137 1.17897 -14.9094 121.641 59.8108 67.8843 -5.84213 0.167304 -87.7324 27.0141 -9.7888 7.81314 15.354 -9.43659 8.23625 -7.40261 -11.6784 4.49051 12.61 -11.6784 4.4905 107.008 -33.584 -72.7093 79.3284 -25.4302 110.312 -45.583 44.5009 -99.6182 -4.38023 1.51222 -49.6036 -66.2989 -0.595063 136.393 56.2961 45.2198 -150.878 35.5171 -13.0714 -140.025 6.63309 16.1971 117.97 -93.8813 -48.8145 17.0499 79.5296 -61.9998 -29.9235 
258.147 73.6885 -253.187 4.38383 -81.2302 -6.57398 -170.603 42.4215 163.546 31.1433 53.7932 -146.393 70.5039 -28.5483 45.3702 21.1666 1.05548 -79.2985 167.694 72.5193 59.4734 -33.3937 -56.1404 9.92408 69.7741 2.4587 -15.1668 119.567 60.1801 69.6879 -5.83382 0.180269 -87.7159 26.9871 -9.76486 7.83581 15.3267 -9.41169 8.2578 -7.42761 -11.6624 4.51967 12.585 -11.6624 4.51968 107.99 -34.764 -71.0025 77.4381 -27.6855 109.462 -45.1787 43.8066 -99.7208 -3.30654 1.03731 -48.3383 -66.4447 -0.418265 136.11 50.4221 50.498 -146.966 -40.7058 7.51259 11.1294 5.95643 14.7483 117.189 -94.0639 -49.0622 17.017 78.3895 -62.3198 -30.8752 
258.955 74.2113 -254.062 4.6186 -81.3886 -6.14716 -171.442 35.7854 159.216 31.8338 50.3816 -140.91 66.557 -26.2207 38.8094 29.6188 -6.86338 -73.1425 162.77 71.0411 64.3659 -30.0312 -56.9604 8.71016 69.2065 4.35942 -15.4817 116.996 60.5607 71.9185 -5.82011 0.202442 -87.689 26.9408 -9.72569 7.87265 15.2799 -9.37097 8.29281 -7.47051 -11.6361 4.56714 12.5421 -11.6361 4.56715 109.686 -36.6626 -68.1692 74.2683 -31.2274 107.848 -44.5175 42.7203 -99.8971 -1.39953 0.263597 -46.241 -66.6753 -0.136456 135.658 42.4721 55.9384 -141.053 -32.683 -6.03065 -0.0466527 4.68675 12.1659 115.837 -94.3617 -49.4381 16.9485 76.651 -62.798 -32.3393 
260.18 74.0523 -255.343 4.92902 -81.5975 -5.57786 -173.602 28.9423 153.608 31.409 49.8942 -134.514 58.5679 -16.4012 29.5629 48.2809 -18.8343 -58.6682 158.703 70.0751 68.3082 -26.9147 -58.01 7.42265 68.6041 6.70542 -15.7422 114.653 60.8266 73.9287 -5.80132 0.234915 -87.6517 26.8732 -9.6721 7.92316 15.2115 -9.31523 8.34082 -7.53359 -11.6002 4.6322 12.4791 -11.6002 4.63219 112.198 -39.1947 -64.2 69.6893 -35.7811 105.146 -43.5406 41.3162 -100.222 1.52732 -0.770512 -43.2669 -66.9789 0.240929 135.058 34.3887 59.9882 -134.527 -30.5042 -20.277 -0.0478602 2.49013 8.07264 114.118 -94.7699 -49.8972 16.8279 74.4706 -63.3739 -34.1959 
261.704 73.8948 -256.982 5.30543 -81.8486 -4.88181 -176.155 23.9216 144.605 29.7277 55.695 -126.788 52.4256 -0.513258 23.3277 77.38 -24.9849 -33.3981 153.904 68.2596 72.9899 -22.1327 -59.0585 5.6877 67.4998 10.1945 -15.5693 112.967 60.9554 75.3458 -5.77808 0.279181 -87.6044 26.7812 -9.60562 7.98718 15.1187 -9.24601 8.40173 -7.6198 -11.5561 4.7142 12.3929 -11.556 4.7142 115.646 -42.2236 -59.0942 63.3992 -40.9577 100.85 -42.077 39.6667 -100.883 5.69626 -1.97057 -39.2941 -67.3438 0.708618 134.332 27.7626 62.5228 -128.89 -28.652 -34.8541 -0.0537507 -0.890446 2.31688 112.52 -95.2818 -50.3892 16.6415 71.9854 -63.9845 -36.3357 
263.514 73.8088 -259.012 5.73794 -82.1338 -4.07512 -178.445 20.7871 131.741 24.526 68.5839 -114.054 55.6514 11.2897 20.8918 100.657 -21.6563 -13.7923 147.303 61.3976 79.7445 -8.31433 -59.7834 2.06087 63.3658 18.2738 -12.6489 112.063 60.9735 76.0654 -5.752 0.336849 -87.547 26.662 -9.52958 8.06494 14.9984 -9.16667 8.47594 -7.73229 -11.5069 4.81234 12.2804 -11.5069 4.81233 120.124 -45.5541 -52.9062 54.8497 -46.2088 94.2373 -39.8098 37.8122 -102.233 11.315 -3.12382 -34.0731 -67.7594 1.26997 133.508 23.349 63.9539 -124.996 -27.5675 -48.7905 -0.0659798 -4.98453 -4.2544 111.674 -95.8794 -50.865 16.3894 69.3033 -64.5712 -38.6698 
